<svg width="34" height="34" viewBox="0 0 34 34" fill="none" xmlns="http://www.w3.org/2000/svg">
<path fill-rule="evenodd" clip-rule="evenodd" d="M5.66659 17C5.66659 10.7408 10.7407 5.66668 16.9999 5.66668C23.2591 5.66668 28.3333 10.7408 28.3333 17C28.3333 23.2592 23.2591 28.3333 16.9999 28.3333C10.7407 28.3333 5.66659 23.2592 5.66659 17ZM16.9999 2.83334C9.17588 2.83334 2.83325 9.17598 2.83325 17C2.83325 24.824 9.17588 31.1667 16.9999 31.1667C24.824 31.1667 31.1666 24.824 31.1666 17C31.1666 9.17598 24.824 2.83334 16.9999 2.83334ZM15.9982 12.3351C15.4449 11.7818 15.4449 10.8849 15.9982 10.3316C16.5514 9.77837 17.4484 9.77837 18.0017 10.3316L23.6683 15.9983C24.2216 16.5515 24.2216 17.4485 23.6683 18.0017L18.0017 23.6684C17.4484 24.2217 16.5514 24.2217 15.9982 23.6684C15.4449 23.1152 15.4449 22.2182 15.9982 21.6649L19.2465 18.4167H11.3333C10.5508 18.4167 9.91659 17.7824 9.91659 17C9.91659 16.2176 10.5508 15.5833 11.3333 15.5833H19.2465L15.9982 12.3351Z" fill="white"/>
</svg>
