<svg width="34" height="34" viewBox="0 0 34 34" fill="none" xmlns="http://www.w3.org/2000/svg">
<path fill-rule="evenodd" clip-rule="evenodd" d="M5.66683 17C5.66683 10.7408 10.7409 5.66668 17.0002 5.66668C23.2594 5.66668 28.3335 10.7408 28.3335 17C28.3335 23.2592 23.2594 28.3333 17.0002 28.3333C10.7409 28.3333 5.66683 23.2592 5.66683 17ZM17.0002 2.83334C9.17613 2.83334 2.8335 9.17598 2.8335 17C2.8335 24.824 9.17613 31.1667 17.0002 31.1667C24.8242 31.1667 31.1668 24.824 31.1668 17C31.1668 9.17598 24.8242 2.83334 17.0002 2.83334ZM15.9984 12.3351C15.4452 11.7818 15.4452 10.8849 15.9984 10.3316C16.5517 9.77837 17.4487 9.77837 18.0019 10.3316L23.6686 15.9983C24.2218 16.5515 24.2218 17.4485 23.6686 18.0017L18.0019 23.6684C17.4487 24.2217 16.5517 24.2217 15.9984 23.6684C15.4452 23.1152 15.4452 22.2182 15.9984 21.6649L19.2467 18.4167H11.3335C10.5511 18.4167 9.91683 17.7824 9.91683 17C9.91683 16.2176 10.5511 15.5833 11.3335 15.5833H19.2467L15.9984 12.3351Z" fill="#BF0014"/>
</svg>
