<svg width="87" height="107" viewBox="0 0 87 107" fill="none" xmlns="http://www.w3.org/2000/svg">
<path d="M77.6164 73.7515C76.5984 71.8094 75.8708 69.7295 75.4567 67.5779C74.9408 64.8031 74.6312 58.3431 74.6312 48.088V33.4064C74.6312 28.4881 74.4248 25.1064 74.012 23.2614C73.4471 20.4654 72.1299 17.8748 70.2013 15.7665C68.3512 13.7184 65.565 12.0961 61.6584 10.8481C57.7518 9.6002 52.7986 8.81473 46.6218 8.81473C41.0837 8.73257 35.5678 9.52797 30.2805 11.1711C25.5484 12.7054 21.8409 14.8415 19.3716 17.7338C16.9658 20.6128 15.2493 23.9991 14.3521 27.6366C14.3489 27.6511 14.3489 27.6661 14.3521 27.6806C14.3521 27.6806 14.3521 27.7246 14.3521 27.7393C14.3448 27.8126 14.3448 27.8863 14.3521 27.9596C14.3523 28.233 14.4541 28.4967 14.6378 28.7C14.8215 28.9032 15.0741 29.0317 15.3471 29.0607H15.4503L25.0325 30.2205H25.1209C25.3503 30.2214 25.5743 30.1512 25.7618 30.0197C25.9493 29.8882 26.0911 29.7018 26.1676 29.4864C27.5091 25.3462 29.4771 22.4539 32.0643 20.7289C34.8431 18.8863 39.0666 17.9614 44.8307 17.9614C51.0149 17.9614 55.6438 19.1946 58.8354 21.7566C60.7002 23.2761 61.7837 25.6986 62.1302 28.9726C62.1965 29.67 62.2333 30.4407 62.2333 31.1748V31.5345C62.2251 31.7614 62.1462 31.9801 62.0075 32.1603C61.8688 32.3406 61.6773 32.4733 61.4594 32.5402C60.9582 32.687 60.4201 32.8338 59.8599 32.9807C55.0172 34.2359 48.1107 35.3444 39.273 36.2987C35.427 36.623 31.6075 37.2067 27.8408 38.0458C24.5663 38.77 21.4435 40.0567 18.6124 41.8484C15.8566 43.4325 13.5529 45.6914 11.9197 48.411C10.1873 51.173 9.29394 54.375 9.34722 57.6311C9.30702 60.3377 9.90021 63.0165 11.0798 65.4552C12.2594 67.8939 13.9929 70.0256 16.1432 71.6814C20.5657 75.3518 27.0595 77.1136 35.3959 77.1136C40.2253 77.1712 45.0298 76.4167 49.607 74.882C53.711 73.4532 57.5788 71.4245 61.0835 68.8625L61.7542 68.3927L61.8132 68.3487C62.2849 68.0036 62.7641 67.6146 63.2432 67.2842C63.2393 67.3233 63.2393 67.3626 63.2432 67.4017C63.3021 67.9523 63.3758 68.4881 63.4643 69.0167C63.4643 69.0167 63.4643 69.0167 63.4643 69.0754C63.4684 69.1071 63.4684 69.1392 63.4643 69.1708C63.538 69.5966 63.6264 70.0224 63.7223 70.4408C64.053 71.9126 64.5474 73.3431 65.1964 74.7058C65.1964 74.7425 65.1964 74.7792 65.248 74.8086C65.3355 74.9717 65.4633 75.1099 65.6194 75.2101C65.7754 75.3103 65.9546 75.3692 66.1399 75.3812H76.6434C76.9138 75.3521 77.1637 75.2241 77.3448 75.0221C77.5259 74.82 77.6253 74.5582 77.6238 74.2874C77.6676 74.1111 77.665 73.9265 77.6164 73.7515ZM46.7545 46.0913C47.3054 46.1015 47.8411 46.2729 48.2949 46.584C48.7488 46.8952 49.1007 47.3325 49.3068 47.8414C49.5129 48.3503 49.5642 48.9084 49.4542 49.4461C49.3442 49.9838 49.0778 50.4773 48.6882 50.8654C48.2986 51.2534 47.8029 51.5187 47.263 51.6283C46.7231 51.7378 46.1628 51.6868 45.6518 51.4815C45.1408 51.2762 44.7018 50.9257 44.3893 50.4737C44.0768 50.0218 43.9048 49.4882 43.8946 48.9396C43.8855 48.5631 43.9533 48.1886 44.0938 47.839C44.2343 47.4893 44.4446 47.1717 44.712 46.9054C44.9794 46.6391 45.2983 46.4296 45.6494 46.2897C46.0005 46.1498 46.3764 46.0823 46.7545 46.0913ZM32.3591 46.0913C32.9153 46.0769 33.4632 46.2273 33.9333 46.5234C34.4035 46.8195 34.7748 47.2481 35.0001 47.7546C35.2254 48.2612 35.2945 48.823 35.1987 49.3688C35.1029 49.9145 34.8466 50.4197 34.4621 50.8201C34.0776 51.2206 33.5824 51.4983 33.0392 51.618C32.4961 51.7377 31.9294 51.6941 31.4112 51.4926C30.893 51.2912 30.4465 50.941 30.1284 50.4864C29.8103 50.0319 29.6349 49.4935 29.6245 48.9396C29.6157 48.5736 29.6795 48.2095 29.8123 47.8681C29.9451 47.5267 30.1442 47.2148 30.3982 46.9502C30.6523 46.6856 30.9562 46.4735 31.2927 46.3261C31.6292 46.1787 31.9916 46.099 32.3591 46.0913ZM60.1548 53.7331C60.1253 53.9093 60.081 54.1075 60.0221 54.3277C59.7372 55.1835 59.3354 55.9962 58.828 56.7429C56.6979 60.1061 53.5447 62.7038 49.8281 64.1571C45.6246 65.8509 41.0776 66.5276 36.5605 66.1317C32.794 65.8748 29.7793 65.06 27.487 63.7386L27.3985 63.6873C27.2754 63.6065 27.1732 63.4979 27.1002 63.3703C27.0271 63.2428 26.9854 63.0998 26.9784 62.9532C26.9711 62.8898 26.9711 62.8257 26.9784 62.7623C26.9718 62.7333 26.9718 62.7032 26.9784 62.6742C27.0303 62.5014 27.133 62.348 27.2732 62.2338L27.3469 62.1824C27.495 62.0902 27.6662 62.0419 27.8408 62.0429H28.0693H28.3567L30.4943 62.1897C35.5267 62.5606 40.586 62.0942 45.4646 60.8097C52.7396 58.835 58.1646 53.278 58.1646 53.278C58.3226 53.1094 58.4926 52.9524 58.6732 52.8082L58.7543 52.7348C58.9219 52.6115 59.1292 52.554 59.3366 52.5733C59.5654 52.5881 59.7801 52.6888 59.9374 52.8549C60.0946 53.0211 60.1829 53.2405 60.1842 53.4688C60.1842 53.5496 60.1695 53.6377 60.1548 53.7331Z" fill="#C80A14"/>
<path d="M18.9291 96.1996C18.9291 94.7314 20.101 93.9973 22.8135 93.711C22.8135 93.0504 22.5039 92.5439 21.671 92.5439C21.0066 92.592 20.3663 92.8122 19.8136 93.1825L19.1723 92.0153C20.0119 91.4632 20.9896 91.1556 21.9953 91.1271C23.7128 91.1271 24.5899 92.1474 24.5899 94.0634V97.9981H23.1157L22.983 97.264C22.4358 97.8103 21.7072 98.1392 20.9339 98.1889C20.668 98.2014 20.4023 98.1586 20.1538 98.0631C19.9054 97.9677 19.6797 97.8217 19.4911 97.6345C19.3024 97.4473 19.155 97.2231 19.0583 96.976C18.9615 96.7289 18.9175 96.4645 18.9291 96.1996ZM22.8135 96.1482V94.7901C21.1772 95.0104 20.6022 95.4508 20.6022 96.0528C20.6022 96.6547 20.9782 96.7868 21.5015 96.7868C21.753 96.7781 21.9998 96.7168 22.2258 96.6067C22.4519 96.4967 22.6521 96.3404 22.8135 96.1482Z" fill="#C80A14"/>
<path d="M26.322 91.2959H28.0984L28.8355 94.6213C28.9682 95.2746 29.0492 95.9206 29.1746 96.5813H29.2188C29.3515 95.9206 29.4768 95.2599 29.6463 94.6213L30.4497 91.2959H32.0345L32.8747 94.6213C33.0369 95.2746 33.1548 95.9206 33.3023 96.5813H33.3612C33.4792 95.9206 33.5676 95.2746 33.7003 94.6213L34.4374 91.2959H36.0737L34.4079 98.0274H32.3219L31.5848 95.0911C31.4374 94.4524 31.3269 93.8432 31.1942 93.1311H31.1352C31.0025 93.8652 30.9067 94.4671 30.7593 95.0911L30.0738 98.0274H28.0616L26.322 91.2959Z" fill="#C80A14"/>
<path d="M37.4005 94.6729C37.4535 94.0451 37.6888 93.4463 38.0777 92.9495C38.4667 92.4526 38.9924 92.0793 39.5908 91.8751C40.1892 91.6709 40.8344 91.6445 41.4476 91.7993C42.0607 91.9541 42.6154 92.2834 43.0438 92.7468C43.4723 93.2103 43.756 93.788 43.8603 94.4093C43.9647 95.0307 43.8851 95.6688 43.6314 96.2459C43.3777 96.823 42.9608 97.314 42.4315 97.6591C41.9023 98.0042 41.2836 98.1883 40.6511 98.1891C40.2019 98.1832 39.7586 98.0861 39.3484 97.9037C38.9382 97.7212 38.5697 97.4574 38.2654 97.1282C37.9611 96.7991 37.7275 96.4116 37.5787 95.9894C37.43 95.5672 37.3694 95.1192 37.4005 94.6729ZM42.081 94.6729C42.081 93.3956 41.5651 92.5661 40.6511 92.5661C39.7371 92.5661 39.2138 93.3956 39.2138 94.6729C39.2138 95.9502 39.7297 96.7503 40.6511 96.7503C41.5724 96.7503 42.0663 95.9355 42.0663 94.6729H42.081Z" fill="#C80A14"/>
<path d="M45.5084 94.6729C45.5614 94.0448 45.7969 93.4457 46.1862 92.9487C46.5755 92.4518 47.1017 92.0785 47.7005 91.8745C48.2993 91.6705 48.9448 91.6446 49.5581 91.8C50.1715 91.9554 50.7261 92.2853 51.1542 92.7495C51.5824 93.2137 51.8655 93.792 51.969 94.4138C52.0725 95.0356 51.9919 95.674 51.7371 96.251C51.4823 96.8279 51.0642 97.3184 50.534 97.6626C50.0039 98.0068 49.3845 98.1898 48.7516 98.1891C48.303 98.1822 47.8606 98.0844 47.4512 97.9015C47.0419 97.7187 46.6743 97.4546 46.3708 97.1256C46.0673 96.7966 45.8343 96.4094 45.686 95.9877C45.5378 95.566 45.4773 95.1186 45.5084 94.6729ZM50.1889 94.6729C50.1889 93.3956 49.673 92.5661 48.7148 92.5661C47.7566 92.5661 47.2774 93.3956 47.2774 94.6729C47.2774 95.9502 47.8008 96.7503 48.7148 96.7503C49.6288 96.7503 50.1742 95.9355 50.1742 94.6729H50.1889Z" fill="#C80A14"/>
<path d="M53.7934 97.0365C53.8035 96.8209 53.877 96.613 54.0048 96.4386C54.1326 96.2643 54.309 96.1312 54.5122 96.0559C54.7153 95.9806 54.9361 95.9664 55.1473 96.0152C55.3584 96.0639 55.5506 96.1733 55.6998 96.3299C55.849 96.4864 55.9487 96.6832 55.9865 96.8958C56.0243 97.1083 55.9985 97.3272 55.9124 97.5253C55.8263 97.7234 55.6837 97.8919 55.5022 98.0099C55.3207 98.1279 55.1084 98.1902 54.8916 98.189C54.7429 98.1871 54.5961 98.1556 54.4598 98.0963C54.3235 98.037 54.2006 97.9511 54.0982 97.8437C53.9958 97.7362 53.9161 97.6094 53.8637 97.4708C53.8114 97.3322 53.7874 97.1845 53.7934 97.0365Z" fill="#C80A14"/>
<path d="M58.0243 96.1996C58.0243 94.7314 59.1962 93.9973 61.9087 93.711C61.9087 93.0504 61.5991 92.5439 60.7662 92.5439C60.1018 92.592 59.4615 92.8122 58.9088 93.1825L58.2822 92.0153C59.1219 91.4632 60.0996 91.1556 61.1053 91.1271C62.8227 91.1271 63.6998 92.1474 63.6998 94.0634V97.9981H62.2257L62.093 97.264C61.542 97.8136 60.8076 98.1427 60.0291 98.1889C59.7632 98.2014 59.4975 98.1586 59.2491 98.0631C59.0006 97.9677 58.7749 97.8217 58.5863 97.6345C58.3976 97.4473 58.2502 97.2231 58.1535 96.976C58.0567 96.7289 58.0127 96.4645 58.0243 96.1996ZM61.9087 96.1482V94.7901C60.2724 95.0104 59.6975 95.4508 59.6975 96.0528C59.6975 96.6547 60.0734 96.7868 60.5967 96.7868C60.8482 96.7781 61.095 96.7168 61.321 96.6067C61.5471 96.4967 61.7473 96.3404 61.9087 96.1482Z" fill="#C80A14"/>
<path d="M65.8742 89.2478C65.8549 89.0361 65.9003 88.8234 66.0042 88.6377C66.1082 88.452 66.266 88.3018 66.457 88.2068C66.648 88.1118 66.8634 88.0763 67.0749 88.1051C67.2865 88.1339 67.4844 88.2255 67.6428 88.3681C67.8013 88.5107 67.9128 88.6975 67.963 88.9042C68.0131 89.1109 67.9995 89.3278 67.924 89.5267C67.8484 89.7256 67.7143 89.8971 67.5393 90.0189C67.3643 90.1407 67.1565 90.2071 66.943 90.2095C66.8082 90.2217 66.6724 90.2059 66.5441 90.1632C66.4158 90.1206 66.2977 90.0519 66.1973 89.9616C66.0969 89.8713 66.0164 89.7612 65.9608 89.6384C65.9052 89.5155 65.8757 89.3826 65.8742 89.2478ZM66.0437 91.2959H67.8054V98.0275H66.0437V91.2959Z" fill="#C80A14"/>
</svg>
